{"glyphs":{"0":{"ha":1068,"x_min":0,"x_max":0,"o":"m 533 997 b 22 486 251 997 22 768 b 533 -25 22 204 251 -25 b 1044 486 815 -25 1044 204 b 533 997 1044 768 815 997 l 533 997 z "},"1":{"ha":763,"x_min":0,"x_max":0,"o":"m 693 972 l 161 972 l 39 486 l 161 486 l 161 0 l 693 0 l 693 972 z "},"2":{"ha":1064,"x_min":0,"x_max":0,"o":"m 665 972 l 310 972 l 310 697 b 49 356 160 657 49 518 l 49 0 l 414 0 l 760 0 l 760 275 b 1021 617 910 315 1021 454 b 665 972 1021 813 861 972 z "},"3":{"ha":985,"x_min":0,"x_max":0,"o":"m 926 663 b 617 972 926 833 788 972 l 69 972 l 69 700 l 226 700 l 226 651 l 69 651 l 69 321 l 226 321 l 226 272 l 69 272 l 69 0 l 615 0 b 617 0 615 0 615 0 b 618 0 617 0 618 0 b 926 310 789 1 926 139 b 872 486 926 375 906 436 b 926 663 906 536 926 597 z "},"4":{"ha":972,"x_min":0,"x_max":0,"o":"m 903 972 l 269 972 l 35 201 l 269 201 l 269 0 l 903 0 b 903 972 903 0 903 972 z "},"5":{"ha":1064,"x_min":0,"x_max":0,"o":"m 760 972 l 49 972 l 49 617 b 310 275 49 454 160 315 l 310 0 l 665 0 b 1021 356 861 0 1021 160 b 760 697 1021 518 910 657 l 760 972 z "},"6":{"ha":971,"x_min":0,"x_max":0,"o":"m 347 972 l 104 603 b 43 393 65 542 43 469 b 436 0 43 176 219 0 l 529 0 b 922 393 746 0 922 176 b 692 750 922 551 828 689 l 838 972 l 347 972 z "},"7":{"ha":1043,"x_min":0,"x_max":0,"o":"m 1006 972 l 67 972 l 67 561 l 239 561 l 67 0 l 710 0 l 1006 972 z "},"8":{"ha":988,"x_min":0,"x_max":0,"o":"m 493 972 b 375 954 444 972 401 965 b 229 738 289 919 229 835 b 229 738 229 738 229 738 b 43 400 117 665 43 542 b 292 31 43 233 146 90 b 493 0 338 11 411 0 b 694 31 575 0 649 11 b 943 400 840 90 943 233 b 757 738 943 542 869 665 b 757 738 757 738 757 738 b 611 954 757 835 697 919 b 493 972 585 965 542 972 z "},"9":{"ha":972,"x_min":0,"x_max":0,"o":"m 535 972 l 442 972 b 49 579 225 972 49 796 b 279 222 49 421 143 283 l 133 0 l 624 0 l 867 369 b 928 579 906 431 928 503 b 535 972 928 796 751 972 l 535 972 z "},"M":{"ha":1111,"x_min":0,"x_max":0,"o":"m 1042 972 l 556 706 l 69 972 l 69 0 l 1042 0 l 1042 972 z "},"N":{"ha":1111,"x_min":0,"x_max":0,"o":"m 1042 972 l 556 972 l 556 706 l 69 972 l 69 0 l 1042 0 l 1042 972 z "},"L":{"ha":1089,"x_min":0,"x_max":0,"o":"m 790 972 l 69 972 l 69 0 l 1042 0 l 1042 486 l 790 486 l 790 972 l 790 972 z "},"F":{"ha":1068,"x_min":0,"x_max":0,"o":"m 831 511 l 1006 511 l 1006 513 l 1006 972 l 69 972 l 69 0 l 831 0 l 831 229 l 1007 229 l 1007 461 l 831 461 z "},"K":{"ha":1103,"x_min":0,"x_max":0,"o":"m 1042 972 l 69 972 l 69 0 l 1042 0 l 775 486 l 1042 972 z "},"O":{"ha":1068,"x_min":0,"x_max":0,"o":"m 533 997 b 22 486 251 997 22 768 b 533 -25 22 204 251 -25 b 1044 486 815 -25 1044 204 b 533 997 1044 768 815 997 l 533 997 z "},"Q":{"ha":1068,"x_min":0,"x_max":0,"o":"m 792 267 l 915 143 b 1047 486 997 233 1047 354 b 538 996 1047 768 819 996 b 26 486 256 996 26 768 b 538 -25 26 204 256 -25 b 881 108 669 -25 790 26 l 757 232 z "},"B":{"ha":1026,"x_min":0,"x_max":0,"o":"m 69 972 l 69 0 l 532 0 b 733 29 614 0 688 11 b 982 400 879 89 982 233 b 796 738 982 542 908 665 b 796 738 796 738 796 738 b 650 954 796 835 736 919 b 532 972 622 965 581 972 l 69 972 z "},"b":{"ha":1026,"x_min":0,"x_max":0,"o":"m 69 972 l 69 0 l 532 0 b 733 29 614 0 688 11 b 982 400 879 89 982 233 b 796 738 982 542 908 665 b 796 738 796 738 796 738 b 650 954 796 835 736 919 b 532 972 622 965 581 972 l 69 972 z "},"f":{"ha":1068,"x_min":0,"x_max":0,"o":"m 831 511 l 1006 511 l 1006 513 l 1006 972 l 69 972 l 69 0 l 831 0 l 831 229 l 1007 229 l 1007 461 l 831 461 z "},"o":{"ha":1068,"x_min":0,"x_max":0,"o":"m 533 997 b 22 486 251 997 22 768 b 533 -25 22 204 251 -25 b 1044 486 815 -25 1044 204 b 533 997 1044 768 815 997 l 533 997 z "},"n":{"ha":1111,"x_min":0,"x_max":0,"o":"m 1042 972 l 556 972 l 556 706 l 69 972 l 69 0 l 1042 0 l 1042 972 z "},"l":{"ha":1089,"x_min":0,"x_max":0,"o":"m 790 972 l 69 972 l 69 0 l 1042 0 l 1042 486 l 790 486 l 790 972 l 790 972 z "},"m":{"ha":1111,"x_min":0,"x_max":0,"o":"m 1042 972 l 556 706 l 69 972 l 69 0 l 1042 0 l 1042 972 z "},"k":{"ha":1103,"x_min":0,"x_max":0,"o":"m 1042 972 l 69 972 l 69 0 l 1042 0 l 775 486 l 1042 972 z "},"C":{"ha":1089,"x_min":0,"x_max":0,"o":"m 1019 972 l 533 972 b 47 486 265 972 47 754 b 533 0 47 218 265 0 l 1019 0 l 1019 461 l 844 461 l 844 511 l 1019 511 z "},"D":{"ha":1090,"x_min":0,"x_max":0,"o":"m 556 972 l 69 972 l 69 0 l 556 0 b 1042 486 824 0 1042 218 b 556 972 1042 754 824 972 z "},"E":{"ha":1076,"x_min":0,"x_max":0,"o":"m 1007 424 l 1007 549 l 831 549 l 831 597 l 1007 597 l 1007 972 l 69 972 l 69 0 l 1007 0 l 1007 375 l 831 375 l 831 424 z "},"G":{"ha":1089,"x_min":0,"x_max":0,"o":"m 847 461 l 847 346 l 797 346 l 797 511 l 1022 511 l 1022 972 l 536 972 b 50 486 268 972 50 754 b 536 0 50 218 268 0 l 1022 0 l 1022 461 z "},"H":{"ha":1075,"x_min":0,"x_max":0,"o":"m 560 0 l 1004 0 l 1003 972 l 560 972 l 560 797 b 510 797 560 797 533 797 l 510 972 l 67 972 l 67 0 l 510 0 l 510 175 b 560 175 510 175 533 175 z "},"I":{"ha":860,"x_min":0,"x_max":0,"o":"m 790 972 l 69 972 l 69 0 l 790 0 l 790 972 z "},"J":{"ha":1063,"x_min":0,"x_max":0,"o":"m 1004 972 l 283 972 l 283 486 l 32 486 b 518 0 32 218 250 0 b 1004 486 786 0 1004 218 l 1004 972 z "},"S":{"ha":972,"x_min":0,"x_max":0,"o":"m 524 997 b 188 858 401 997 281 950 b 188 188 3 672 3 374 l 114 114 b 449 -25 207 22 328 -25 b 785 114 571 -25 692 22 b 785 785 969 299 969 599 l 858 858 b 524 997 765 950 644 997 l 524 997 z "},"T":{"ha":1088,"x_min":0,"x_max":0,"o":"m 1031 972 l 58 972 l 58 486 l 185 486 l 185 0 l 904 0 l 904 486 l 1031 486 l 1031 972 z "},"U":{"ha":1089,"x_min":0,"x_max":0,"o":"m 60 972 l 60 486 b 546 0 60 218 278 0 b 1032 486 814 0 1032 218 l 1032 972 l 571 972 l 571 797 l 521 797 l 521 972 z "},"V":{"ha":1113,"x_min":0,"x_max":0,"o":"m 1090 972 l 22 972 l 556 0 l 1090 972 z "},"W":{"ha":1111,"x_min":0,"x_max":0,"o":"m 1042 972 l 69 972 l 69 0 l 556 267 l 1042 0 l 1042 972 z "},"X":{"ha":1096,"x_min":0,"x_max":0,"o":"m 1033 972 l 61 972 l 281 486 l 61 0 l 1033 0 l 814 486 l 1033 972 z "},"Y":{"ha":1054,"x_min":0,"x_max":0,"o":"m 1013 972 l 40 972 l 260 486 l 260 0 l 793 0 l 793 486 l 1013 972 z "},"Z":{"ha":1104,"x_min":0,"x_max":0,"o":"m 1038 972 l 65 972 l 65 486 l 332 486 l 65 0 l 1038 0 l 1038 486 l 771 486 l 1038 972 z "},"P":{"ha":1043,"x_min":0,"x_max":0,"o":"m 607 972 b 69 972 585 972 69 972 l 69 0 l 769 0 l 769 222 b 999 579 906 285 999 421 b 607 972 999 796 824 972 l 607 972 z "},"R":{"ha":1036,"x_min":0,"x_max":0,"o":"m 594 972 l 69 972 l 69 0 l 903 0 l 756 222 b 986 579 892 283 986 421 b 594 972 986 796 811 972 l 594 972 z "},"-":{"ha":1111,"x_min":0,"x_max":0,"o":"m 1042 656 l 69 656 l 69 317 l 1042 317 l 1042 656 z "},"/":{"ha":779,"x_min":0,"x_max":0,"o":"m 325 972 l 29 0 l 454 0 l 750 972 l 325 972 z "},"a":{"ha":1113,"x_min":0,"x_max":0,"o":"m 1090 0 l 556 972 l 22 0 z "},"c":{"ha":1089,"x_min":0,"x_max":0,"o":"m 1019 972 l 533 972 b 47 486 265 972 47 754 b 533 0 47 218 265 0 l 1019 0 l 1019 461 l 844 461 l 844 511 l 1019 511 z "},"d":{"ha":1090,"x_min":0,"x_max":0,"o":"m 556 972 l 69 972 l 69 0 l 556 0 b 1042 486 824 0 1042 218 b 556 972 1042 754 824 972 z "},"e":{"ha":1076,"x_min":0,"x_max":0,"o":"m 1007 424 l 1007 549 l 831 549 l 831 597 l 1007 597 l 1007 972 l 69 972 l 69 0 l 1007 0 l 1007 375 l 831 375 l 831 424 z "},"g":{"ha":1089,"x_min":0,"x_max":0,"o":"m 847 461 l 847 346 l 797 346 l 797 511 l 1022 511 l 1022 972 l 536 972 b 50 486 268 972 50 754 b 536 0 50 218 268 0 l 1022 0 l 1022 461 z "},"h":{"ha":1075,"x_min":0,"x_max":0,"o":"m 560 0 l 1004 0 l 1003 972 l 560 972 l 560 797 b 510 797 560 797 533 797 l 510 972 l 67 972 l 67 0 l 510 0 l 510 175 b 560 175 510 175 533 175 z "},"i":{"ha":860,"x_min":0,"x_max":0,"o":"m 790 972 l 69 972 l 69 0 l 790 0 l 790 972 z "},"j":{"ha":1063,"x_min":0,"x_max":0,"o":"m 1004 972 l 283 972 l 283 486 l 32 486 b 518 0 32 218 250 0 b 1004 486 786 0 1004 218 l 1004 972 z "},"p":{"ha":1043,"x_min":0,"x_max":0,"o":"m 607 972 b 69 972 585 972 69 972 l 69 0 l 769 0 l 769 222 b 999 579 906 285 999 421 b 607 972 999 796 824 972 l 607 972 z "},"q":{"ha":1068,"x_min":0,"x_max":0,"o":"m 792 267 l 915 143 b 1047 486 997 233 1047 354 b 538 996 1047 768 819 996 b 26 486 256 996 26 768 b 538 -25 26 204 256 -25 b 881 108 669 -25 790 26 l 757 232 z "},"r":{"ha":1036,"x_min":0,"x_max":0,"o":"m 594 972 l 69 972 l 69 0 l 903 0 l 756 222 b 986 579 892 283 986 421 b 594 972 986 796 811 972 l 594 972 z "},"t":{"ha":1088,"x_min":0,"x_max":0,"o":"m 1031 972 l 58 972 l 58 486 l 185 486 l 185 0 l 904 0 l 904 486 l 1031 486 z "},"u":{"ha":1089,"x_min":0,"x_max":0,"o":"m 60 972 l 60 486 b 546 0 60 218 278 0 b 1032 486 814 0 1032 218 l 1032 972 l 571 972 l 571 797 l 521 797 l 521 972 z "},"v":{"ha":1113,"x_min":0,"x_max":0,"o":"m 1090 972 l 22 972 l 556 0 l 1090 972 z "},"w":{"ha":1111,"x_min":0,"x_max":0,"o":"m 1042 972 l 69 972 l 69 0 l 556 267 l 1042 0 l 1042 972 z "},"x":{"ha":1096,"x_min":0,"x_max":0,"o":"m 1033 972 l 61 972 l 281 486 l 61 0 l 1033 0 l 814 486 l 1033 972 z "},"y":{"ha":1054,"x_min":0,"x_max":0,"o":"m 1013 972 l 40 972 l 260 486 l 260 0 l 793 0 l 793 486 l 1013 972 z "},"z":{"ha":1104,"x_min":0,"x_max":0,"o":"m 1038 972 l 65 972 l 65 486 l 332 486 l 65 0 l 1038 0 l 1038 486 l 771 486 l 1038 972 z "},"s":{"ha":1058,"x_min":0,"x_max":0,"o":"m 754 972 l 399 972 b 43 617 203 972 43 813 b 304 275 43 454 154 315 l 304 0 l 660 0 b 1015 356 856 0 1015 160 b 754 697 1015 518 904 657 l 754 972 z "}," ":{"ha":700,"x_min":0,"x_max":0,"o":""},"A":{"ha":1113,"x_min":0,"x_max":0,"o":"m 1090 0 l 556 972 l 22 0 z "},":":{"ha":418,"x_min":0,"x_max":0,"o":"m 210 654 b 69 515 132 654 69 592 b 210 376 69 438 132 376 b 349 515 286 376 349 438 b 210 654 349 592 286 654 l 210 654 z m 210 278 b 69 139 132 278 69 215 b 210 0 69 61 132 0 b 349 139 286 0 349 61 b 210 278 349 215 286 278 z "},";":{"ha":418,"x_min":0,"x_max":0,"o":"m 210 654 b 69 515 132 654 69 592 b 210 376 69 438 132 376 b 349 515 286 376 349 438 b 210 654 349 592 286 654 l 210 654 z m 210 278 b 111 238 171 278 136 263 b 69 139 86 213 69 178 b 69 -114 69 100 69 -114 b 308 40 69 -114 282 15 b 349 139 333 65 349 100 b 308 238 349 178 333 213 b 210 278 282 263 247 278 l 210 278 z "},".":{"ha":417,"x_min":0,"x_max":0,"o":"m 208 278 b 69 139 132 278 69 215 b 208 0 69 63 132 0 b 347 139 285 0 347 63 b 208 278 347 215 285 278 z "},"”":{"ha":753,"x_min":0,"x_max":0,"o":"m 210 974 b 111 933 171 974 136 958 b 69 835 86 908 69 874 b 69 582 69 796 69 582 b 308 736 69 582 282 711 b 349 835 333 761 349 796 b 308 933 349 874 333 908 b 210 974 282 958 247 974 z m 544 974 b 446 933 506 974 471 958 b 404 835 421 908 404 874 b 404 582 404 796 404 582 b 643 736 404 582 617 711 b 683 835 668 761 683 796 b 643 933 683 874 668 908 b 544 974 617 958 582 974 z "},",":{"ha":425,"x_min":0,"x_max":0,"o":"m 210 278 b 111 238 171 278 136 263 b 69 139 86 213 69 178 b 69 -114 69 100 69 -114 b 308 40 69 -114 282 15 b 349 139 333 65 349 100 b 308 238 349 178 333 213 b 210 278 282 263 247 278 l 210 278 z "},"\"":{"ha":753,"x_min":0,"x_max":0,"o":"m 210 974 b 111 933 171 974 136 958 b 69 835 86 908 69 874 b 69 582 69 796 69 582 b 308 736 69 582 282 711 b 349 835 333 761 349 796 b 308 933 349 874 333 908 b 210 974 282 958 247 974 z m 544 974 b 446 933 506 974 471 958 b 404 835 421 908 404 874 b 404 582 404 796 404 582 b 643 736 404 582 617 711 b 683 835 668 761 683 796 b 643 933 683 874 668 908 b 544 974 617 958 582 974 z "},"“":{"ha":768,"x_min":0,"x_max":0,"o":"m 210 972 b 111 932 171 972 136 957 b 69 833 86 906 69 871 b 111 735 69 794 86 760 b 349 581 136 710 349 581 b 349 833 349 581 349 794 b 308 932 349 871 333 906 b 210 972 282 957 247 972 z m 543 972 b 444 932 504 972 469 957 b 403 833 419 906 403 871 b 444 735 403 794 419 760 b 682 581 469 710 682 581 b 682 833 682 581 682 794 b 642 932 682 871 667 906 b 543 972 615 957 581 972 z "},"„":{"ha":1157,"x_min":0,"x_max":0,"o":""},"•":{"ha":544,"x_min":0,"x_max":0,"o":"m 272 689 b 69 486 160 689 69 599 b 272 283 69 374 160 283 b 475 486 385 283 475 374 b 272 689 475 599 385 689 l 272 689 z "},"!":{"ha":478,"x_min":0,"x_max":0,"o":"m 239 336 b 71 168 146 336 71 261 b 239 0 71 75 146 0 b 407 168 332 0 407 75 b 239 336 407 261 332 336 l 239 336 z m 408 410 l 408 972 l 69 972 l 69 410 l 408 410 z "},"'":{"ha":418,"x_min":0,"x_max":0,"o":"m 210 974 b 111 933 171 974 136 958 b 69 835 86 908 69 874 b 69 582 69 796 69 582 b 308 736 69 582 282 711 b 349 835 333 761 349 796 b 308 933 349 874 333 908 b 210 974 282 958 247 974 z "},"’":{"ha":418,"x_min":0,"x_max":0,"o":"m 210 974 b 111 933 171 974 136 958 b 69 835 86 908 69 874 b 69 582 69 796 69 582 b 308 736 69 582 282 711 b 349 835 333 761 349 796 b 308 933 349 874 333 908 b 210 974 282 958 247 974 z "},"‘":{"ha":446,"x_min":0,"x_max":0,"o":"m 210 972 b 111 932 171 972 136 957 b 69 833 86 906 69 871 b 111 735 69 794 86 760 b 349 581 136 710 349 581 b 349 833 349 581 349 794 b 308 932 349 871 333 906 b 210 972 282 957 247 972 z "}}}
